<svg width="24" height="24" viewBox="0 0 24 24" fill="none" xmlns="http://www.w3.org/2000/svg">
<path fill-rule="evenodd" clip-rule="evenodd" d="M7.50003 6V6.75H5.51303C4.55303 6.75 3.74903 7.474 3.64803 8.429L2.38503 20.429C2.35756 20.6903 2.38533 20.9545 2.46654 21.2045C2.54776 21.4544 2.6806 21.6844 2.85645 21.8797C3.0323 22.075 3.24723 22.2311 3.48731 22.338C3.72739 22.4448 3.98724 22.5 4.25003 22.5H19.75C20.0128 22.5 20.2727 22.4448 20.5127 22.338C20.7528 22.2311 20.9678 22.075 21.1436 21.8797C21.3195 21.6844 21.4523 21.4544 21.5335 21.2045C21.6147 20.9545 21.6425 20.6903 21.615 20.429L20.352 8.429C20.3036 7.96815 20.0862 7.54155 19.7418 7.23151C19.3974 6.92146 18.9504 6.74993 18.487 6.75H16.5V6C16.5 4.80653 16.0259 3.66193 15.182 2.81802C14.3381 1.97411 13.1935 1.5 12 1.5C10.8066 1.5 9.66196 1.97411 8.81805 2.81802C7.97413 3.66193 7.50003 4.80653 7.50003 6ZM12 3C11.2044 3 10.4413 3.31607 9.87871 3.87868C9.3161 4.44129 9.00003 5.20435 9.00003 6V6.75H15V6C15 5.20435 14.684 4.44129 14.1213 3.87868C13.5587 3.31607 12.7957 3 12 3ZM9.00003 11.25C9.00003 12.0456 9.3161 12.8087 9.87871 13.3713C10.4413 13.9339 11.2044 14.25 12 14.25C12.7957 14.25 13.5587 13.9339 14.1213 13.3713C14.684 12.8087 15 12.0456 15 11.25V10.5C15 10.3011 15.079 10.1103 15.2197 9.96967C15.3604 9.82902 15.5511 9.75 15.75 9.75C15.9489 9.75 16.1397 9.82902 16.2804 9.96967C16.421 10.1103 16.5 10.3011 16.5 10.5V11.25C16.5 12.4435 16.0259 13.5881 15.182 14.432C14.3381 15.2759 13.1935 15.75 12 15.75C10.8066 15.75 9.66196 15.2759 8.81805 14.432C7.97413 13.5881 7.50003 12.4435 7.50003 11.25V10.5C7.50003 10.3011 7.57905 10.1103 7.7197 9.96967C7.86035 9.82902 8.05112 9.75 8.25003 9.75C8.44894 9.75 8.63971 9.82902 8.78036 9.96967C8.92101 10.1103 9.00003 10.3011 9.00003 10.5V11.25Z" fill="white"/>
</svg>
