<svg width="24" height="24" viewBox="0 0 24 24" fill="none" xmlns="http://www.w3.org/2000/svg">
<path fill-rule="evenodd" clip-rule="evenodd" d="M12.5301 16.2799C12.3895 16.4204 12.1988 16.4992 12.0001 16.4992C11.8013 16.4992 11.6107 16.4204 11.4701 16.2799L3.97009 8.77991C3.83761 8.63773 3.76549 8.44969 3.76892 8.25539C3.77234 8.06109 3.85106 7.8757 3.98847 7.73829C4.12588 7.60087 4.31127 7.52216 4.50557 7.51873C4.69987 7.51531 4.88792 7.58743 5.03009 7.71991L12.0001 14.6899L18.9701 7.71991C19.0388 7.64622 19.1216 7.58712 19.2136 7.54613C19.3056 7.50514 19.4049 7.48309 19.5056 7.48132C19.6063 7.47954 19.7063 7.49807 19.7997 7.53579C19.8931 7.57351 19.9779 7.62965 20.0491 7.70087C20.1203 7.77209 20.1765 7.85692 20.2142 7.95031C20.2519 8.0437 20.2705 8.14373 20.2687 8.24443C20.2669 8.34513 20.2449 8.44445 20.2039 8.53645C20.1629 8.62845 20.1038 8.71125 20.0301 8.77991L12.5301 16.2799Z" fill="#5A5D6C"/>
</svg>
