<svg width="24" height="24" viewBox="0 0 24 24" fill="none" xmlns="http://www.w3.org/2000/svg">
<path fill-rule="evenodd" clip-rule="evenodd" d="M11.4701 7.72007C11.6107 7.57962 11.8013 7.50073 12.0001 7.50073C12.1988 7.50073 12.3895 7.57962 12.5301 7.72007L20.0301 15.2201C20.1038 15.2887 20.1629 15.3715 20.2039 15.4635C20.2449 15.5555 20.2669 15.6548 20.2687 15.7556C20.2705 15.8563 20.2519 15.9563 20.2142 16.0497C20.1765 16.1431 20.1203 16.2279 20.0491 16.2991C19.9779 16.3703 19.8931 16.4265 19.7997 16.4642C19.7063 16.5019 19.6063 16.5204 19.5056 16.5187C19.4049 16.5169 19.3056 16.4948 19.2136 16.4539C19.1216 16.4129 19.0388 16.3538 18.9701 16.2801L12.0001 9.31007L5.03009 16.2801C4.88792 16.4126 4.69987 16.4847 4.50557 16.4812C4.31127 16.4778 4.12588 16.3991 3.98847 16.2617C3.85106 16.1243 3.77234 15.9389 3.76892 15.7446C3.76549 15.5503 3.83761 15.3622 3.97009 15.2201L11.4701 7.72007Z" fill="#5A5D6C"/>
</svg>
