<svg width="24" height="24" viewBox="0 0 24 24" fill="none" xmlns="http://www.w3.org/2000/svg">
<path fill-rule="evenodd" clip-rule="evenodd" d="M16.2801 11.4701C16.4205 11.6107 16.4994 11.8013 16.4994 12.0001C16.4994 12.1988 16.4205 12.3895 16.2801 12.5301L8.78009 20.0301C8.63792 20.1626 8.44987 20.2347 8.25557 20.2313C8.06127 20.2278 7.87588 20.1491 7.73847 20.0117C7.60106 19.8743 7.52234 19.6889 7.51892 19.4946C7.51549 19.3003 7.58761 19.1123 7.72009 18.9701L14.6901 12.0001L7.72009 5.03009C7.58761 4.88792 7.51549 4.69987 7.51892 4.50557C7.52234 4.31127 7.60106 4.12588 7.73847 3.98847C7.87588 3.85106 8.06127 3.77234 8.25557 3.76892C8.44987 3.76549 8.63792 3.83761 8.78009 3.97009L16.2801 11.4701Z" fill="#5A5D6C"/>
</svg>
