<svg width="24" height="24" viewBox="0 0 24 24" fill="none" xmlns="http://www.w3.org/2000/svg">
<path fill-rule="evenodd" clip-rule="evenodd" d="M7.72007 12.5299C7.57962 12.3893 7.50073 12.1987 7.50073 11.9999C7.50073 11.8012 7.57962 11.6105 7.72007 11.4699L15.2201 3.96991C15.2887 3.89622 15.3715 3.83712 15.4635 3.79613C15.5555 3.75514 15.6548 3.73309 15.7556 3.73132C15.8563 3.72954 15.9563 3.74807 16.0497 3.78579C16.1431 3.82351 16.2279 3.87965 16.2991 3.95087C16.3703 4.02209 16.4265 4.10692 16.4642 4.20031C16.5019 4.2937 16.5204 4.39373 16.5187 4.49443C16.5169 4.59513 16.4948 4.69445 16.4539 4.78645C16.4129 4.87845 16.3538 4.96125 16.2801 5.02991L9.31007 11.9999L16.2801 18.9699C16.3538 19.0386 16.4129 19.1214 16.4539 19.2134C16.4948 19.3054 16.5169 19.4047 16.5187 19.5054C16.5204 19.6061 16.5019 19.7061 16.4642 19.7995C16.4265 19.8929 16.3703 19.9777 16.2991 20.0489C16.2279 20.1202 16.1431 20.1763 16.0497 20.214C15.9563 20.2518 15.8563 20.2703 15.7556 20.2685C15.6548 20.2667 15.5555 20.2447 15.4635 20.2037C15.3715 20.1627 15.2887 20.1036 15.2201 20.0299L7.72007 12.5299Z" fill="#5A5D6C"/>
</svg>
