<svg width="24" height="24" viewBox="0 0 24 24" fill="none" xmlns="http://www.w3.org/2000/svg">
<path fill-rule="evenodd" clip-rule="evenodd" d="M10.5 3.74989C9.61358 3.74989 8.73583 3.92448 7.91689 4.2637C7.09794 4.60292 6.35382 5.10012 5.72703 5.72692C5.10023 6.35371 4.60303 7.09783 4.26381 7.91678C3.92459 8.73572 3.75 9.61347 3.75 10.4999C3.75 11.3863 3.92459 12.2641 4.26381 13.083C4.60303 13.9019 5.10023 14.6461 5.72703 15.2729C6.35382 15.8997 7.09794 16.3969 7.91689 16.7361C8.73583 17.0753 9.61358 17.2499 10.5 17.2499C12.2902 17.2499 14.0071 16.5387 15.273 15.2729C16.5388 14.007 17.25 12.2901 17.25 10.4999C17.25 8.70968 16.5388 6.99279 15.273 5.72692C14.0071 4.46105 12.2902 3.74989 10.5 3.74989ZM2.25 10.4999C2.25017 9.17499 2.56944 7.86961 3.18079 6.69419C3.79214 5.51876 4.67759 4.50787 5.76224 3.74701C6.84689 2.98615 8.09883 2.49771 9.41216 2.32301C10.7255 2.14831 12.0616 2.29249 13.3074 2.74334C14.5533 3.1942 15.6722 3.93847 16.5695 4.91321C17.4669 5.88794 18.1163 7.06446 18.4628 8.34325C18.8094 9.62204 18.8428 10.9655 18.5603 12.2599C18.2778 13.5544 17.6878 14.7617 16.84 15.7799L21.53 20.4699C21.6037 20.5386 21.6628 20.6214 21.7038 20.7134C21.7448 20.8053 21.7668 20.9047 21.7686 21.0054C21.7704 21.1061 21.7518 21.2061 21.7141 21.2995C21.6764 21.3929 21.6203 21.4777 21.549 21.5489C21.4778 21.6201 21.393 21.6763 21.2996 21.714C21.2062 21.7517 21.1062 21.7703 21.0055 21.7685C20.9048 21.7667 20.8055 21.7447 20.7135 21.7037C20.6215 21.6627 20.5387 21.6036 20.47 21.5299L15.78 16.8399C14.5752 17.8434 13.1094 18.4828 11.5543 18.6831C9.99922 18.8835 8.41922 18.6366 6.99941 17.9713C5.5796 17.306 4.37878 16.2499 3.53763 14.9266C2.69648 13.6034 2.24983 12.0678 2.25 10.4999Z" fill="#5A5D6C"/>
</svg>
