<svg width="165" height="37" viewBox="0 0 165 37" fill="none" xmlns="http://www.w3.org/2000/svg">
<path d="M19.2957 36.54C15.4557 36.54 12.0957 35.82 9.2157 34.38C6.3757 32.9 4.1557 30.9 2.5557 28.38C0.995703 25.82 0.215703 22.92 0.215703 19.68C0.215703 16.44 0.975703 13.56 2.4957 11.04C4.0557 8.48 6.1957 6.5 8.9157 5.1C11.6357 3.66 14.6957 2.94 18.0957 2.94C21.2957 2.94 24.2157 3.6 26.8557 4.92C29.4957 6.2 31.5957 8.1 33.1557 10.62C34.7157 13.14 35.4957 16.2 35.4957 19.8C35.4957 20.2 35.4757 20.66 35.4357 21.18C35.3957 21.7 35.3557 22.18 35.3157 22.62H9.5757V16.62H29.2557L24.9357 18.3C24.9757 16.82 24.6957 15.54 24.0957 14.46C23.5357 13.38 22.7357 12.54 21.6957 11.94C20.6957 11.34 19.5157 11.04 18.1557 11.04C16.7957 11.04 15.5957 11.34 14.5557 11.94C13.5557 12.54 12.7757 13.4 12.2157 14.52C11.6557 15.6 11.3757 16.88 11.3757 18.36V20.1C11.3757 21.7 11.6957 23.08 12.3357 24.24C13.0157 25.4 13.9757 26.3 15.2157 26.94C16.4557 27.54 17.9357 27.84 19.6557 27.84C21.2557 27.84 22.6157 27.62 23.7357 27.18C24.8957 26.7 26.0357 25.98 27.1557 25.02L33.1557 31.26C31.5957 32.98 29.6757 34.3 27.3957 35.22C25.1157 36.1 22.4157 36.54 19.2957 36.54ZM39.3958 25.824V18.816H53.4118V25.824H39.3958ZM67.8452 36.384C65.6372 36.384 63.5092 36.128 61.4612 35.616C59.4452 35.072 57.8452 34.4 56.6612 33.6L59.1572 28.224C60.3412 28.96 61.7332 29.568 63.3332 30.048C64.9652 30.496 66.5652 30.72 68.1332 30.72C69.8612 30.72 71.0772 30.512 71.7812 30.096C72.5172 29.68 72.8852 29.104 72.8852 28.368C72.8852 27.76 72.5972 27.312 72.0212 27.024C71.4772 26.704 70.7412 26.464 69.8132 26.304C68.8852 26.144 67.8612 25.984 66.7412 25.824C65.6532 25.664 64.5492 25.456 63.4292 25.2C62.3092 24.912 61.2852 24.496 60.3572 23.952C59.4292 23.408 58.6772 22.672 58.1012 21.744C57.5572 20.816 57.2852 19.616 57.2852 18.144C57.2852 16.512 57.7492 15.072 58.6772 13.824C59.6372 12.576 61.0132 11.6 62.8052 10.896C64.5972 10.16 66.7412 9.792 69.2372 9.792C70.9972 9.792 72.7892 9.984 74.6132 10.368C76.4372 10.752 77.9572 11.312 79.1732 12.048L76.6772 17.376C75.4292 16.64 74.1652 16.144 72.8852 15.888C71.6372 15.6 70.4212 15.456 69.2372 15.456C67.5732 15.456 66.3572 15.68 65.5892 16.128C64.8212 16.576 64.4372 17.152 64.4372 17.856C64.4372 18.496 64.7092 18.976 65.2532 19.296C65.8292 19.616 66.5812 19.872 67.5092 20.064C68.4372 20.256 69.4452 20.432 70.5332 20.592C71.6532 20.72 72.7732 20.928 73.8932 21.216C75.0132 21.504 76.0212 21.92 76.9172 22.464C77.8452 22.976 78.5972 23.696 79.1732 24.624C79.7492 25.52 80.0372 26.704 80.0372 28.176C80.0372 29.776 79.5572 31.2 78.5972 32.448C77.6372 33.664 76.2452 34.624 74.4212 35.328C72.6292 36.032 70.4372 36.384 67.8452 36.384ZM95.2172 36.384C92.1772 36.384 89.8092 35.616 88.1132 34.08C86.4172 32.512 85.5692 30.192 85.5692 27.12V4.464H93.0572V27.024C93.0572 28.112 93.3452 28.96 93.9212 29.568C94.4972 30.144 95.2812 30.432 96.2732 30.432C97.4572 30.432 98.4652 30.112 99.2972 29.472L101.313 34.752C100.545 35.296 99.6172 35.712 98.5292 36C97.4732 36.256 96.3692 36.384 95.2172 36.384ZM81.5852 16.512V10.752H99.4892V16.512H81.5852ZM117.008 36.384C114.256 36.384 111.808 35.808 109.664 34.656C107.552 33.504 105.872 31.936 104.624 29.952C103.408 27.936 102.8 25.648 102.8 23.088C102.8 20.496 103.408 18.208 104.624 16.224C105.872 14.208 107.552 12.64 109.664 11.52C111.808 10.368 114.256 9.792 117.008 9.792C119.728 9.792 122.16 10.368 124.304 11.52C126.448 12.64 128.128 14.192 129.344 16.176C130.56 18.16 131.168 20.464 131.168 23.088C131.168 25.648 130.56 27.936 129.344 29.952C128.128 31.936 126.448 33.504 124.304 34.656C122.16 35.808 119.728 36.384 117.008 36.384ZM117.008 30.24C118.256 30.24 119.376 29.952 120.368 29.376C121.36 28.8 122.144 27.984 122.72 26.928C123.296 25.84 123.584 24.56 123.584 23.088C123.584 21.584 123.296 20.304 122.72 19.248C122.144 18.192 121.36 17.376 120.368 16.8C119.376 16.224 118.256 15.936 117.008 15.936C115.76 15.936 114.64 16.224 113.648 16.8C112.656 17.376 111.856 18.192 111.248 19.248C110.672 20.304 110.384 21.584 110.384 23.088C110.384 24.56 110.672 25.84 111.248 26.928C111.856 27.984 112.656 28.8 113.648 29.376C114.64 29.952 115.76 30.24 117.008 30.24ZM142.365 30.72L142.557 21.6L154.605 10.176H163.533L151.965 21.936L148.077 25.104L142.365 30.72ZM136.173 36V0.383998H143.661V36H136.173ZM155.421 36L146.685 25.152L151.389 19.344L164.493 36H155.421Z" fill="white"/>
</svg>
